<svg xmlns="http://www.w3.org/2000/svg" viewBox="0 0 1440 320"><path fill="#003298" fill-opacity="1" d="M0,224L20,229.3C40,235,80,245,120,234.7C160,224,200,192,240,192C280,192,320,224,360,224C400,224,440,192,480,170.7C520,149,560,139,600,165.3C640,192,680,256,720,288C760,320,800,320,840,288C880,256,920,192,960,186.7C1000,181,1040,235,1080,240C1120,245,1160,203,1200,160C1240,117,1280,75,1320,58.7C1360,43,1400,53,1420,58.7L1440,64L1440,0L1420,0C1400,0,1360,0,1320,0C1280,0,1240,0,1200,0C1160,0,1120,0,1080,0C1040,0,1000,0,960,0C920,0,880,0,840,0C800,0,760,0,720,0C680,0,640,0,600,0C560,0,520,0,480,0C440,0,400,0,360,0C320,0,280,0,240,0C200,0,160,0,120,0C80,0,40,0,20,0L0,0Z"></path></svg>